<svg xmlns="http://www.w3.org/2000/svg" xmlns:xlink="http://www.w3.org/1999/xlink" width="250" zoomAndPan="magnify" viewBox="0 0 187.5 187.499992" height="250" preserveAspectRatio="xMidYMid meet" version="1.0"><defs><g/><clipPath id="f2d19ef323"><path d="M 0 0 L 187 0 L 187 187 L 0 187 Z M 0 0 " clip-rule="nonzero"/></clipPath><clipPath id="2085ed4777"><path d="M 93.4375 -0.125 C 41.765625 -0.125 -0.125 41.765625 -0.125 93.4375 C -0.125 145.113281 41.765625 187 93.4375 187 C 145.113281 187 187 145.113281 187 93.4375 C 187 41.765625 145.113281 -0.125 93.4375 -0.125 Z M 93.4375 -0.125 " clip-rule="nonzero"/></clipPath></defs><g clip-path="url(#f2d19ef323)"><g clip-path="url(#2085ed4777)"><path fill="#000000" d="M -0.125 -0.125 L 187 -0.125 L 187 187 L -0.125 187 Z M -0.125 -0.125 " fill-opacity="1" fill-rule="nonzero"/></g></g><g fill="#ffffff" fill-opacity="1"><g transform="translate(55.605604, 151.783752)"><g><path d="M 44.9375 -60.203125 C 61.238281 -26.753906 69.390625 -8.359375 69.390625 -5.015625 C 69.390625 -1.671875 65.769531 0 58.53125 0 C 46.957031 0 39.1875 -0.625 35.21875 -1.875 C 31.25 -3.132812 28.285156 -5.257812 26.328125 -8.25 C 24.378906 -11.25 20.023438 -19.890625 13.265625 -34.171875 C 6.515625 -48.453125 3.140625 -56.847656 3.140625 -59.359375 C 3.140625 -61.867188 4.84375 -66.742188 8.25 -73.984375 C 11.664062 -81.234375 15.5 -88.929688 19.75 -97.078125 C 24 -105.234375 26.398438 -109.972656 26.953125 -111.296875 C 27.515625 -112.617188 28.597656 -114.007812 30.203125 -115.46875 C 31.804688 -116.9375 34.972656 -118.265625 39.703125 -119.453125 C 44.441406 -120.640625 50.570312 -121.234375 58.09375 -121.234375 C 65.625 -121.234375 69.390625 -118.789062 69.390625 -113.90625 C 69.390625 -110.988281 61.238281 -93.085938 44.9375 -60.203125 Z M 44.9375 -60.203125 "/></g></g></g></svg>