<svg xmlns="http://www.w3.org/2000/svg" xmlns:xlink="http://www.w3.org/1999/xlink" width="250" zoomAndPan="magnify" viewBox="0 0 187.5 187.499992" height="250" preserveAspectRatio="xMidYMid meet" version="1.0"><defs><g/></defs><g fill="#000000" fill-opacity="1"><g transform="translate(55.605604, 151.783752)"><g><path d="M 6.265625 -113.90625 C 6.265625 -118.789062 14.765625 -121.234375 31.765625 -121.234375 C 40.128906 -121.234375 45.984375 -117.46875 49.328125 -109.9375 C 49.460938 -109.519531 51.691406 -105.203125 56.015625 -96.984375 C 67.023438 -75.804688 72.53125 -63.613281 72.53125 -60.40625 C 72.53125 -57.195312 69.148438 -48.453125 62.390625 -34.171875 C 55.628906 -19.890625 51.304688 -11.285156 49.421875 -8.359375 C 47.546875 -5.429688 45.351562 -3.304688 42.84375 -1.984375 C 40.332031 -0.660156 35.976562 0 29.78125 0 C 23.582031 0 18.53125 -0.242188 14.625 -0.734375 C 10.726562 -1.222656 8.359375 -1.8125 7.515625 -2.5 C 6.679688 -3.195312 6.265625 -4.171875 6.265625 -5.421875 C 6.265625 -6.679688 8.285156 -11.910156 12.328125 -21.109375 C 16.367188 -30.304688 22.5 -43.335938 30.71875 -60.203125 C 14.414062 -92.941406 6.265625 -110.84375 6.265625 -113.90625 Z M 6.265625 -113.90625 "/></g></g></g></svg>